<?xml version="1.0" encoding="utf-8"?>
<!-- Generator: Adobe Illustrator 28.5.0, SVG Export Plug-In . SVG Version: 9.03 Build 54727)  -->
<svg version="1.0" xmlns="http://www.w3.org/2000/svg" xmlns:xlink="http://www.w3.org/1999/xlink"
	width="190px" height="50px" x="0px" y="0px" viewBox="0 0 190 50" style="enable-background:new 0 0 190 50;"
	xml:space="preserve">
<style type="text/css">
	.wine-base{fill:#231815;} .letter{fill:#231815;} .wine1{fill:#B61C2D;} .wine2{fill:#CE2D38;}
	.wine-bottom{fill:none;stroke:#231815;stroke-width:5;stroke-linecap:round;stroke-miterlimit:10;}
	.letter{fill:#231815;}
</style>
<g class="icon">
	<path class="wine-base" d="M80.62,7.12c-3.4,0-6.84-0.77-6.84-2.25s3.44-2.26,6.84-2.26c3.4,0,6.84,0.77,6.84,2.25S84.02,7.12,80.62,7.12
		z M80.62,3.24c-3.85,0-6.21,0.95-6.21,1.63s2.36,1.63,6.21,1.63s6.21-0.95,6.21-1.63S84.47,3.24,80.62,3.24z"/>
	<path class="wine2" d="M89.04,13.34c0,0-3.76,3.01-8.42-0.04c-4.65-3.05-8.42,0.23-8.42,0.23s-0.58,0.49-1.38,1.56
		c-0.09,1.82,0.03,3.76,0.51,5.73c1.01,4.17,4.74,7.16,9.03,7.22c0.06,0,0.13,0,0.2,0s0.13,0,0.2,0c4.3-0.06,8.02-3.05,9.03-7.22
		c0.72-2.97,0.63-5.9,0.24-8.39C89.47,13.02,89.04,13.34,89.04,13.34z"/>
	<path class="wine1" d="M80.6,27.88c0.06,0,0.13,0,0.2,0s0.13-0.01,0.2,0c4.62,0.17,9.69-4.37,9.14-10.54
		c-2.7,2.09-7.02,2.13-9.63-0.58c-3.53-3.82-7.36-2.31-9.65-0.52c-0.04,1.1,0.28,3.63,0.52,4.6C72.41,25.02,76.32,28.04,80.6,27.88z
		"/>
	<path class="wine-base" d="M80.62,28.36c-0.08,0-0.17,0-0.26,0c-4.44-0.06-8.28-3.14-9.33-7.46c-1.91-7.86,1.86-15.53,1.89-15.61
		C73,5.14,73.2,5.08,73.35,5.15c0.15,0.08,0.22,0.27,0.14,0.42c-0.04,0.08-3.7,7.54-1.84,15.18c0.99,4.05,4.58,6.92,8.73,6.98
		c0.08,0,0.17,0,0.25,0c0.17,0,0.31,0.14,0.31,0.31C80.94,28.22,80.79,28.36,80.62,28.36z"/>
	<path class="wine-base" d="M80.53,28.36c-0.17,0-0.31-0.14-0.31-0.31s0.14-0.31,0.31-0.31c0.08,0,0.17,0,0.25,0
		c4.15-0.06,7.75-2.93,8.73-6.98c1.86-7.64-1.81-15.1-1.84-15.18c-0.08-0.15-0.01-0.35,0.14-0.42s0.35-0.01,0.42,0.14
		c0.04,0.08,3.8,7.74,1.89,15.61c-1.05,4.33-4.89,7.39-9.33,7.46C80.69,28.36,80.61,28.36,80.53,28.36z"/>
	<path class="wine-base" d="M80.12,47.39c-2.86,0-5.04-0.14-6.5-0.43c-1.44-0.28-2.12-0.68-2.13-1.25c-0.02-1.23,3.28-1.91,5.64-1.99
		c0.17-0.01,0.32,0.13,0.33,0.3s-0.13,0.32-0.3,0.33c-3.15,0.12-5.04,0.99-5.04,1.35c0,0.01,0.24,1.06,8,1.06
		c3.46,0,5.89-0.11,7.23-0.33c2.21-0.36,2.67-0.86,2.66-1.02c-0.03-0.36-1.47-1.05-4.1-1.05c-2.41,0-3.78-0.15-4.61-0.98
		c-1.09-1.09-1.09-3.12-1.08-7.57c0-0.33,0-0.68,0-1.04c0-4.24-2.27-5.69-2.36-5.75c-0.15-0.09-0.19-0.28-0.1-0.43
		c0.09-0.15,0.28-0.19,0.43-0.1c0.11,0.06,2.67,1.66,2.67,6.29c0,0.36,0,0.7,0,1.04c-0.01,4.14-0.01,6.22,0.9,7.13
		c0.67,0.67,1.93,0.8,4.16,0.8c2.29,0,4.65,0.56,4.73,1.63c0.06,0.77-1.01,1.34-3.18,1.69C86.06,47.28,83.66,47.39,80.12,47.39z"/>
	<path class="wine-bottom" d="M83.76,28.62"/>
	<path class="wine-base" d="M80.97,32.64c-0.01,0-0.01,0-0.02,0c-0.17-0.01-0.31-0.16-0.29-0.33c0.15-2.73,2.08-3.76,2.16-3.8
		c0.15-0.08,0.35-0.02,0.42,0.13c0.08,0.15,0.02,0.35-0.13,0.42c-0.07,0.04-1.7,0.92-1.82,3.27C81.27,32.51,81.14,32.64,80.97,32.64
		z"/>
</g>
<g class="letter1">
	<path class="letter" d="M19.28,46.88l-3.42-9.1l-3.62,9.1h-0.15l-6.23-16.8c-0.45-1.2-0.76-1.66-1.73-1.88v-0.13
		c0.52,0.03,1.56,0.05,2.41,0.05c0.93,0,1.68-0.03,2.23-0.05v0.13c-0.83,0.1-1.11,0.4-1.11,0.95c0,0.33,0.13,0.73,0.3,1.23
		l4.75,12.79l2.69-6.61l-2.43-6.48c-0.55-1.43-1.03-1.66-2.01-1.88v-0.13c0.52,0.03,1.73,0.05,2.59,0.05c0.93,0,1.53-0.03,2.09-0.05
		v0.13c-0.76,0.1-1.01,0.4-1.01,0.85c0,0.35,0.15,0.81,0.35,1.33l1.43,3.69l0.48-1.18c0.63-1.53,1.03-2.64,1.03-3.42
		c0-0.73-0.38-1.16-1.25-1.28v-0.13c0.55,0.03,1.98,0.05,2.91,0.05c0.85,0,1.13-0.03,1.66-0.05v0.13c-1.25,0.25-1.83,0.65-3.57,5.03
		l-0.81,2.04l3.04,7.91l3.89-10.27c0.6-1.58,0.93-2.64,0.93-3.37c0-0.81-0.43-1.2-1.38-1.38v-0.08c0.55,0.03,2.21,0.05,3.14,0.05
		c0.85,0,1.13-0.03,1.66-0.05v0.08c-1.25,0.35-1.81,0.43-3.57,5.08L19.42,46.9L19.28,46.88L19.28,46.88z"/>
	<path class="letter" d="M33.23,46.38c-0.52-0.03-1.33-0.05-2.18-0.05c-0.93,0-1.63,0.03-2.18,0.05v-0.13
		c0.93-0.15,1.25-0.28,1.25-2.29V30.48c0-2.01-0.33-2.14-1.25-2.29v-0.13c0.55,0.03,1.25,0.05,2.18,0.05c0.85,0,1.66-0.03,2.18-0.05
		v0.13c-0.93,0.15-1.25,0.28-1.25,2.29v13.49c0,2.01,0.33,2.14,1.25,2.29V46.38z"/>
	<path class="letter" d="M47.92,46.88L36.67,32.14v1.76c0,12.56-0.22,11.79,1.49,12.36v0.13c-0.55-0.03-1.2-0.05-2.14-0.05
		c-0.85,0-1.46,0.03-1.98,0.05v-0.13c1.61-0.6,1.38-0.45,1.38-13.01V27.7h0.17l11.2,14.67v-1.73c0-12.71,0.17-11.88-1.49-12.44
		v-0.13c0.55,0.03,1.2,0.05,2.14,0.05c0.85,0,1.56-0.03,2.09-0.05v0.13c-1.68,0.55-1.49,0.35-1.49,12.91v5.78L47.92,46.88
		L47.92,46.88z"/>
	<path class="letter" d="M62.24,43.09c-0.03,2.11-0.15,2.21-0.15,3.32c-2.34-0.08-4.1-0.08-6.43-0.08c-1.91,0-4.52,0.03-5.05,0.05
		v-0.13c1.2-0.2,1.43-0.58,1.43-2.29V30.48c0-2.01-0.4-2.11-1.5-2.29v-0.13c0.5,0.03,1.41,0.05,3.21,0.05c3.84,0,7.11,0,8.24-0.05
		c0,0.17,0.03,0.65,0.03,1.06c0,0.55-0.03,1.53-0.15,2.06h-0.13c0-2.23-2.04-2.31-5.73-2.31c-1.41,0-1.73,0.05-2.11,0.15v7.48
		c4.62,0,6.13-0.05,6.5-1.93h0.13c-0.03,0.78-0.05,1.31-0.05,2.34c0,1.33,0.03,1.71,0.05,2.56H60.4c-0.38-2.16-1.88-2.21-6.5-2.21
		v8.16c0.28,0.1,0.95,0.15,2.14,0.15c3.92,0,5.7,0,6.08-2.49L62.24,43.09L62.24,43.09z"/>
</g>
<g class="letter2">
	<path class="letter" d="M105.43,46.9l-6.15-16.8c-0.6-1.61-1.08-1.71-2.06-1.88v-0.13c0.52,0.03,1.88,0.05,2.74,0.05
		c0.93,0,1.91-0.03,2.46-0.05v0.13c-0.98,0.1-1.33,0.4-1.33,0.95c0,0.33,0.13,0.73,0.3,1.23l4.67,12.89l3.59-10.38
		c0.58-1.71,0.95-2.82,0.95-3.5c0-0.73-0.4-1.06-1.33-1.2v-0.13c0.55,0.03,1.81,0.05,2.74,0.05c0.85,0,1.13-0.03,1.66-0.05v0.13
		c-1.28,0.38-1.86,1.16-3.24,5.03l-4.85,13.67h-0.15V46.9z"/>
	<path class="letter" d="M118.88,46.39c-0.52-0.03-1.33-0.05-2.18-0.05c-0.93,0-1.63,0.03-2.18,0.05v-0.13
		c0.93-0.15,1.25-0.28,1.25-2.29V30.49c0-2.01-0.33-2.14-1.25-2.29v-0.13c0.55,0.03,1.25,0.05,2.18,0.05c0.85,0,1.66-0.03,2.18-0.05
		v0.13c-0.93,0.15-1.25,0.28-1.25,2.29v13.49c0,2.01,0.33,2.14,1.25,2.29V46.39z"/>
	<path class="letter" d="M131.21,43.1c-0.03,2.11-0.15,2.21-0.15,3.32c-2.34-0.08-4.1-0.08-6.43-0.08c-1.91,0-4.52,0.03-5.05,0.05
		v-0.13c1.2-0.2,1.43-0.58,1.43-2.29V30.49c0-2.01-0.33-2.14-1.25-2.29v-0.13c0.55,0.03,1.25,0.05,2.18,0.05
		c0.85,0,1.66-0.03,2.18-0.05v0.13c-0.93,0.15-1.25,0.28-1.25,2.29v14.7c0.28,0.1,0.95,0.15,2.14,0.15c3.92,0,5.7,0.25,6.08-2.23
		L131.21,43.1L131.21,43.1L131.21,43.1z"/>
	<path class="letter" d="M143.27,43.1c-0.03,2.11-0.15,2.21-0.15,3.32c-2.34-0.08-4.1-0.08-6.43-0.08c-1.91,0-4.52,0.03-5.05,0.05
		v-0.13c1.2-0.2,1.43-0.58,1.43-2.29V30.49c0-2.01-0.33-2.14-1.25-2.29v-0.13c0.55,0.03,1.25,0.05,2.18,0.05
		c0.85,0,1.66-0.03,2.18-0.05v0.13c-0.93,0.15-1.25,0.28-1.25,2.29v14.7c0.28,0.1,0.95,0.15,2.14,0.15c3.92,0,5.7,0.25,6.08-2.23
		L143.27,43.1L143.27,43.1L143.27,43.1z"/>
	<path class="letter" d="M159.23,46.39c-0.52-0.03-1.33-0.05-2.18-0.05c-0.93,0-1.68,0.03-2.23,0.05v-0.13
		c0.83-0.05,1.11-0.4,1.11-0.88c0-0.35-0.15-0.81-0.3-1.31l-1.49-4.72h-2.89c-0.9,0-1.79,0-2.66,0.03l-1.5,4.07
		c-0.22,0.63-0.43,1.23-0.43,1.71c0,0.58,0.3,1.01,1.16,1.11v0.13c-0.55-0.03-1.41-0.05-2.34-0.05c-0.85,0-1.18,0.03-1.71,0.05
		v-0.13c1.28-0.3,1.68-0.6,2.77-3.47l5.68-15.1h0.25l5.27,16.68c0.5,1.58,0.55,1.76,1.5,1.88L159.23,46.39L159.23,46.39z
		 M151.59,31.2l-2.74,7.41c0.81,0.03,1.58,0.03,2.39,0.03h2.66L151.59,31.2z"/>
	<path class="letter" d="M169.77,40.03c0-2.11-0.5-2.14-1.43-2.29v-0.13c0.55,0.03,1.43,0.05,2.36,0.05c0.85,0,1.5-0.03,2.04-0.05v0.13
		c-0.9,0.17-1.11,0.33-1.11,2.29v4.92c-0.93,0.72-1.73,1.63-4.82,1.63c-6.43,0-8.57-4.57-8.57-9.27c0-4.92,2.16-9.37,8.29-9.37
		c2.34,0,2.84,0.52,5.17,1.23c-0.05,0.55-0.08,1.58-0.08,2.36c0,0.43,0,0.81,0.03,0.98h-0.13c-0.28-2.82-1.76-4.02-4.9-4.02
		c-3.47,0-6.18,2.36-6.18,8.72c0,5.27,2.11,8.81,6.43,8.81c1.36,0,1.86-0.4,2.89-1.43v-4.56H169.77z"/>
	<path class="letter" d="M184.87,43.1c-0.03,2.11-0.15,2.21-0.15,3.32c-2.34-0.08-4.1-0.08-6.43-0.08c-1.91,0-4.52,0.03-5.05,0.05
		v-0.13c1.2-0.2,1.43-0.58,1.43-2.29V30.49c0-2.01-0.4-2.11-1.5-2.29v-0.13c0.5,0.03,1.41,0.05,3.21,0.05c3.84,0,7.11,0,8.24-0.05
		c0,0.17,0.03,0.65,0.03,1.06c0,0.55-0.03,1.53-0.15,2.06h-0.13c0-2.23-2.04-2.31-5.73-2.31c-1.41,0-1.73,0.05-2.11,0.15v7.48
		c4.62,0,6.13-0.05,6.5-1.93h0.13c-0.03,0.78-0.05,1.31-0.05,2.34c0,1.33,0.03,1.71,0.05,2.56h-0.13c-0.38-2.16-1.88-2.21-6.5-2.21
		v8.16c0.28,0.1,0.95,0.15,2.14,0.15c3.92,0,5.7,0,6.08-2.49L184.87,43.1L184.87,43.1z"/>
</g>
</svg>
