<?xml version="1.0" encoding="utf-8"?>
<svg version="1.0" xmlns="http://www.w3.org/2000/svg" xmlns:xlink="http://www.w3.org/1999/xlink" width="300px" height="133px"
	x="0px" y="0px" viewBox="0 0 360 160" style="enable-background:new 0 0 360 160;" xml:space="preserve">
<style type="text/css">
	.wine-base{fill:#999;} .letter{fill:#999;} .wine1{fill:#B61C2D;} .wine2{fill:#CE2D38;}
	.wine-bottom{fill:none;stroke:#231815;stroke-width:5;stroke-linecap:round;stroke-miterlimit:10;}
</style>
<g>
	<path class="wine-base" d="M54.9,30.7c-9.2,0-18.5-2.1-18.5-6.1s9.3-6.1,18.5-6.1s18.5,2.1,18.5,6.1S64.1,30.7,54.9,30.7z M54.9,20.2
		c-10.4,0-16.8,2.6-16.8,4.4c0,1.8,6.4,4.4,16.8,4.4s16.8-2.6,16.8-4.4C71.7,22.7,65.3,20.2,54.9,20.2z"/>
	<path class="wine2" d="M77.7,47.5c0,0-10.2,8.1-22.7-0.1C42.4,39.1,32.2,48,32.2,48s-1.6,1.3-3.7,4.2c-0.2,4.9,0.1,10.2,1.4,15.5
		C32.6,78.9,42.7,87,54.3,87.1c0.2,0,0.4,0,0.5,0c0.2,0,0.4,0,0.5,0C66.9,87,77,78.9,79.7,67.6c1.9-8,1.7-15.9,0.6-22.6
		C78.8,46.6,77.7,47.5,77.7,47.5z"/>
	<path class="wine1" d="M54.9,86.7c0.2,0,0.4,0,0.5,0c0.2,0,0.4,0,0.5,0c12.5,0.5,26.1-11.8,24.7-28.5c-7.3,5.7-18.9,5.7-26-1.6
		c-9.5-10.3-19.9-6.2-26-1.4c-0.1,3,0.8,9.8,1.4,12.4C32.8,79,43.3,87.1,54.9,86.7z"/>
	<path class="wine-base" d="M54.9,88c-0.2,0-0.5,0-0.7,0c-12-0.2-22.4-8.5-25.2-20.1c-5.2-21.2,5-41.9,5.1-42.1c0.2-0.4,0.7-0.6,1.1-0.4
		c0.4,0.2,0.6,0.7,0.4,1.1c-0.1,0.2-10,20.4-5,41c2.7,10.9,12.3,18.7,23.6,18.9c0.2,0,0.4,0,0.7,0c0.5,0,0.8,0.4,0.8,0.8
		S55.4,88,54.9,88z"/>
	<path class="wine-base" d="M54.7,88c-0.5,0-0.8-0.4-0.8-0.8s0.4-0.8,0.8-0.8c0.2,0,0.4,0,0.7,0c11.2-0.2,20.9-7.9,23.6-18.9
		c5-20.6-4.9-40.8-5-41c-0.2-0.4,0-0.9,0.4-1.1c0.4-0.2,0.9,0,1.1,0.4c0.1,0.2,10.3,20.9,5.1,42.1c-2.8,11.7-13.2,20-25.2,20.1
		C55.1,88,54.9,88,54.7,88z"/>
	<path class="wine-base" d="M53.6,139.4c-7.7,0-13.6-0.4-17.6-1.2c-3.9-0.8-5.7-1.8-5.7-3.4c-0.1-3.3,8.9-5.1,15.2-5.4
		c0.5,0,0.9,0.3,0.9,0.8c0,0.5-0.3,0.9-0.8,0.9c-8.5,0.3-13.6,2.7-13.6,3.6c0,0,0.6,2.9,21.6,2.9c9.3,0,15.9-0.3,19.5-0.9
		c6-1,7.2-2.3,7.2-2.7c-0.1-1-4-2.8-11.1-2.8c-6.5,0-10.2-0.4-12.4-2.7c-2.9-2.9-2.9-8.4-2.9-20.4c0-0.9,0-1.8,0-2.8
		c0-11.5-6.1-15.4-6.4-15.5c-0.4-0.2-0.5-0.8-0.3-1.2c0.2-0.4,0.8-0.5,1.2-0.3c0.3,0.2,7.2,4.5,7.2,17c0,1,0,1.9,0,2.8
		c0,11.2,0,16.8,2.4,19.2c1.8,1.8,5.2,2.2,11.2,2.2c6.2,0,12.5,1.5,12.8,4.4c0.2,2.1-2.7,3.6-8.6,4.6
		C69.6,139.1,63.1,139.4,53.6,139.4z"/>
	<path class="wine-bottom" d="M63.4,88.7"/>
	<path class="wine-base" d="M55.9,99.6C55.9,99.6,55.9,99.6,55.9,99.6c-0.5,0-0.9-0.4-0.8-0.9c0.4-7.4,5.6-10.1,5.8-10.3
		c0.4-0.2,0.9-0.1,1.1,0.4c0.2,0.4,0.1,0.9-0.4,1.1c-0.2,0.1-4.6,2.5-4.9,8.8C56.7,99.2,56.3,99.6,55.9,99.6z"/>
</g>
<g>
	<path class="letter" d="M138.2,72.5L129,47.9l-9.8,24.5h-0.4L102,27.1c-1.2-3.3-2-4.5-4.7-5.1v-0.3c1.4,0.1,4.2,0.1,6.5,0.1
		c2.5,0,4.5-0.1,6-0.1V22c-2.2,0.3-3,1.1-3,2.6c0,0.9,0.3,2,0.8,3.3l12.8,34.5l7.3-17.8l-6.6-17.5c-1.5-3.9-2.8-4.5-5.4-5.1v-0.3
		c1.4,0.1,4.7,0.1,7,0.1c2.5,0,4.1-0.1,5.6-0.1V22c-2,0.3-2.7,1.1-2.7,2.3c0,0.9,0.4,2.2,0.9,3.6l3.9,10l1.3-3.2
		c1.7-4.1,2.8-7.1,2.8-9.2c0-2-1-3.1-3.4-3.5v-0.3c1.5,0.1,5.4,0.1,7.9,0.1c2.3,0,3.1-0.1,4.5-0.1V22c-3.4,0.7-5,1.8-9.6,13.6
		l-2.2,5.5l8.2,21.4l10.5-27.7c1.6-4.3,2.5-7.1,2.5-9.1c0-2.2-1.2-3.3-3.7-3.7v-0.2c1.5,0.1,6,0.1,8.5,0.1c2.3,0,3.1-0.1,4.5-0.1
		v0.2c-3.4,0.9-4.9,1.2-9.6,13.7l-13.9,36.9H138.2z"/>
	<path class="letter" d="M175.8,71.1c-1.4-0.1-3.6-0.1-5.9-0.1c-2.5,0-4.4,0.1-5.9,0.1v-0.3c2.5-0.4,3.4-0.7,3.4-6.2V28.2
		c0-5.4-0.9-5.8-3.4-6.2v-0.3c1.5,0.1,3.4,0.1,5.9,0.1c2.3,0,4.5-0.1,5.9-0.1V22c-2.5,0.4-3.4,0.7-3.4,6.2v36.4
		c0,5.4,0.9,5.8,3.4,6.2V71.1z"/>
	<path class="letter" d="M215.5,72.5l-30.4-39.8v4.7c0,33.9-0.6,31.8,4,33.4v0.3c-1.5-0.1-3.3-0.1-5.8-0.1c-2.3,0-3.9,0.1-5.4,0.1v-0.3
		c4.3-1.6,3.7-1.2,3.7-35.1v-15h0.5l30.2,39.6v-4.7c0-34.3,0.5-32.1-4-33.6v-0.3c1.5,0.1,3.3,0.1,5.8,0.1c2.3,0,4.2-0.1,5.6-0.1V22
		c-4.5,1.5-4,0.9-4,34.9v15.6H215.5z"/>
	<path class="letter" d="M254.2,62.3c-0.1,5.7-0.4,6-0.4,9c-6.3-0.2-11.1-0.2-17.4-0.2c-5.2,0-12.2,0.1-13.6,0.1v-0.3
		c3.3-0.5,3.9-1.6,3.9-6.2V28.2c0-5.4-1.1-5.7-4.1-6.2v-0.3c1.4,0.1,3.8,0.1,8.7,0.1c10.4,0,19.2,0,22.2-0.1c0,0.5,0.1,1.8,0.1,2.8
		c0,1.5-0.1,4.1-0.4,5.6h-0.3c0-6-5.5-6.2-15.5-6.2c-3.8,0-4.7,0.1-5.7,0.4v20.2c12.5,0,16.5-0.1,17.6-5.2h0.3
		c-0.1,2.1-0.1,3.5-0.1,6.3c0,3.6,0.1,4.6,0.1,6.9h-0.3c-1-5.8-5.1-6-17.6-6v22c0.7,0.3,2.6,0.4,5.8,0.4c10.6,0,15.4,0,16.4-6.7
		H254.2z"/>
	<path class="letter" d="M125.4,140.3l-16.6-45.4c-1.6-4.3-2.9-4.6-5.6-5.1v-0.3c1.4,0.1,5.1,0.1,7.4,0.1c2.5,0,5.2-0.1,6.6-0.1v0.3
		c-2.6,0.3-3.6,1.1-3.6,2.6c0,0.9,0.3,2,0.8,3.3l12.6,34.8l9.7-28c1.6-4.6,2.6-7.6,2.6-9.4c0-2-1.1-2.8-3.6-3.3v-0.3
		c1.5,0.1,4.9,0.1,7.4,0.1c2.3,0,3.1-0.1,4.5-0.1v0.3c-3.5,1-5,3.1-8.7,13.6l-13.1,36.9H125.4z"/>
	<path class="letter" d="M161.7,139c-1.4-0.1-3.6-0.1-5.9-0.1c-2.5,0-4.4,0.1-5.9,0.1v-0.3c2.5-0.4,3.4-0.7,3.4-6.2V96
		c0-5.4-0.9-5.8-3.4-6.2v-0.3c1.5,0.1,3.4,0.1,5.9,0.1c2.3,0,4.5-0.1,5.9-0.1v0.3c-2.5,0.4-3.4,0.7-3.4,6.2v36.4
		c0,5.4,0.9,5.8,3.4,6.2V139z"/>
	<path class="letter" d="M195,130.1c-0.1,5.7-0.4,6-0.4,9c-6.3-0.2-11.1-0.2-17.4-0.2c-5.2,0-12.2,0.1-13.6,0.1v-0.3
		c3.3-0.5,3.9-1.6,3.9-6.2V96c0-5.4-0.9-5.8-3.4-6.2v-0.3c1.5,0.1,3.4,0.1,5.9,0.1c2.3,0,4.5-0.1,5.9-0.1v0.3
		c-2.5,0.4-3.4,0.7-3.4,6.2v39.7c0.7,0.3,2.6,0.4,5.8,0.4c10.6,0,15.4,0.7,16.4-6H195z"/>
	<path class="letter" d="M227.5,130.1c-0.1,5.7-0.4,6-0.4,9c-6.3-0.2-11.1-0.2-17.4-0.2c-5.2,0-12.2,0.1-13.6,0.1v-0.3
		c3.3-0.5,3.9-1.6,3.9-6.2V96c0-5.4-0.9-5.8-3.4-6.2v-0.3c1.5,0.1,3.4,0.1,5.9,0.1c2.3,0,4.5-0.1,5.9-0.1v0.3
		c-2.5,0.4-3.4,0.7-3.4,6.2v39.7c0.7,0.3,2.6,0.4,5.8,0.4c10.6,0,15.4,0.7,16.4-6H227.5z"/>
	<path class="letter" d="M270.6,139c-1.4-0.1-3.6-0.1-5.9-0.1c-2.5,0-4.5,0.1-6,0.1v-0.3c2.2-0.1,3-1.1,3-2.4c0-0.9-0.4-2.2-0.8-3.5
		l-4-12.7H249c-2.4,0-4.8,0-7.2,0.1l-4.1,11c-0.6,1.7-1.2,3.3-1.2,4.6c0,1.6,0.8,2.7,3.1,3v0.3c-1.5-0.1-3.8-0.1-6.3-0.1
		c-2.3,0-3.2,0.1-4.6,0.1v-0.3c3.5-0.8,4.5-1.6,7.5-9.4l15.3-40.8h0.7l14.2,45c1.4,4.3,1.5,4.7,4.1,5.1V139z M250,97.9l-7.4,20
		c2.2,0.1,4.3,0.1,6.4,0.1h7.2L250,97.9z"/>
	<path class="letter" d="M299.1,121.8c0-5.7-1.4-5.8-3.9-6.2v-0.3c1.5,0.1,3.9,0.1,6.4,0.1c2.3,0,4.1-0.1,5.5-0.1v0.3
		c-2.4,0.5-3,0.9-3,6.2v13.3c-2.5,1.9-4.7,4.4-13,4.4c-17.4,0-23.1-12.3-23.1-25c0-13.3,5.8-25.3,22.4-25.3c6.3,0,7.7,1.4,14,3.3
		c-0.1,1.5-0.2,4.3-0.2,6.4c0,1.2,0,2.2,0.1,2.6h-0.3c-0.7-7.6-4.7-10.9-13.2-10.9c-9.4,0-16.7,6.4-16.7,23.5
		c0,14.2,5.7,23.8,17.4,23.8c3.7,0,5-1.1,7.8-3.9V121.8z"/>
	<path class="letter" d="M339.8,130.1c-0.1,5.7-0.4,6-0.4,9c-6.3-0.2-11.1-0.2-17.4-0.2c-5.2,0-12.2,0.1-13.6,0.1v-0.3
		c3.3-0.5,3.9-1.6,3.9-6.2V96c0-5.4-1.1-5.7-4.1-6.2v-0.3c1.4,0.1,3.8,0.1,8.7,0.1c10.4,0,19.2,0,22.2-0.1c0,0.5,0.1,1.8,0.1,2.8
		c0,1.5-0.1,4.1-0.4,5.6h-0.3c0-6-5.5-6.2-15.5-6.2c-3.8,0-4.7,0.1-5.7,0.4v20.2c12.5,0,16.5-0.1,17.6-5.2h0.3
		c-0.1,2.1-0.1,3.5-0.1,6.3c0,3.6,0.1,4.6,0.1,6.9h-0.3c-1-5.8-5.1-6-17.6-6v22c0.7,0.3,2.6,0.4,5.8,0.4c10.6,0,15.4,0,16.4-6.7
		H339.8z"/>
</g>
</svg>
