<?xml version="1.0" encoding="utf-8"?>
<!-- Generator: Adobe Illustrator 28.5.0, SVG Export Plug-In . SVG Version: 9.03 Build 54727)  -->
<svg version="1.0" xmlns="http://www.w3.org/2000/svg" xmlns:xlink="http://www.w3.org/1999/xlink"
	width="304px" height="82px" x="0px" y="0px" viewBox="0 0 304 82" style="enable-background:new 0 0 304 82;"
	xml:space="preserve">
<style type="text/css">
	.wine-base{fill:#231815;} .letter{fill:#231815;} .wine1{fill:#B61C2D;} .wine2{fill:#CE2D38;}
	.wine-bottom{fill:none;stroke:#231815;stroke-width:5;stroke-linecap:round;stroke-miterlimit:10;}
	.letter{fill:#231815;}
</style>
<g class="icon">
	<path class="wine-base" d="M129.82,12.05c-5.31,0-10.68-1.21-10.68-3.52S124.51,5,129.82,5c5.31,0,10.68,1.21,10.68,3.52
		S135.13,12.05,129.82,12.05z M129.82,5.98c-6.01,0-9.7,1.48-9.7,2.54s3.69,2.54,9.7,2.54s9.7-1.48,9.7-2.54
		S135.83,5.98,129.82,5.98z"/>
	<path class="wine2" d="M142.97,21.76c0,0-5.88,4.7-13.15-0.07c-7.27-4.77-13.15,0.36-13.15,0.36s-0.91,0.76-2.15,2.44
		c-0.14,2.84,0.05,5.88,0.8,8.95c1.58,6.52,7.4,11.18,14.11,11.28c0.1,0,0.21,0,0.31,0c0.11,0,0.21,0,0.31,0
		c6.71-0.1,12.53-4.76,14.11-11.28c1.13-4.64,0.98-9.21,0.37-13.1C143.64,21.26,142.97,21.76,142.97,21.76z"/>
	<path class="wine1" d="M129.79,44.48c0.1,0,0.21,0,0.31,0c0.11,0,0.21-0.01,0.31,0c7.22,0.26,15.13-6.83,14.28-16.47
		c-4.22,3.27-10.96,3.32-15.04-0.91c-5.52-5.97-11.49-3.61-15.07-0.81c-0.07,1.72,0.44,5.67,0.81,7.19
		C117,40,123.1,44.72,129.79,44.48z"/>
	<path class="wine-base" d="M129.82,45.23c-0.13,0-0.27,0-0.4,0c-6.94-0.1-12.94-4.9-14.58-11.66c-2.98-12.28,2.9-24.26,2.96-24.38
		c0.12-0.24,0.42-0.34,0.66-0.22c0.24,0.12,0.34,0.42,0.22,0.66c-0.06,0.12-5.78,11.78-2.88,23.71c1.54,6.33,7.15,10.81,13.64,10.91
		c0.13,0,0.26,0,0.39,0c0.27,0,0.49,0.22,0.49,0.49C130.31,45.01,130.09,45.23,129.82,45.23z"/>
	<path class="wine-base" d="M129.67,45.23c-0.27,0-0.49-0.22-0.49-0.49s0.22-0.49,0.49-0.49c0.13,0,0.26,0,0.39,0
		c6.49-0.1,12.1-4.58,13.64-10.91c2.9-11.93-2.82-23.59-2.88-23.71c-0.12-0.24-0.02-0.54,0.22-0.66s0.54-0.02,0.66,0.22
		c0.06,0.12,5.94,12.09,2.96,24.38c-1.64,6.76-7.64,11.55-14.58,11.66C129.93,45.23,129.8,45.23,129.67,45.23z"/>
	<path class="wine-base" d="M129.03,74.95c-4.46,0-7.88-0.22-10.16-0.67c-2.25-0.44-3.31-1.06-3.32-1.96c-0.03-1.92,5.13-2.98,8.81-3.11
		c0.27-0.01,0.5,0.2,0.51,0.47c0.01,0.27-0.2,0.5-0.47,0.51c-4.92,0.18-7.88,1.55-7.87,2.11c0,0.02,0.37,1.66,12.5,1.66
		c5.41,0,9.2-0.17,11.29-0.51c3.46-0.56,4.17-1.34,4.15-1.59c-0.05-0.57-2.29-1.64-6.41-1.64c-3.76,0-5.9-0.24-7.2-1.53
		c-1.7-1.7-1.7-4.88-1.69-11.83c0-0.52,0-1.06,0-1.62c0-6.63-3.54-8.89-3.69-8.99c-0.23-0.14-0.3-0.44-0.16-0.67s0.44-0.3,0.67-0.16
		c0.17,0.1,4.17,2.6,4.17,9.82c0,0.56,0,1.1,0,1.63c-0.01,6.47-0.01,9.72,1.4,11.14c1.05,1.05,3.02,1.25,6.5,1.25
		c3.57,0,7.26,0.87,7.39,2.54c0.1,1.2-1.57,2.09-4.97,2.64C138.31,74.78,134.57,74.95,129.03,74.95z"/>
	<path class="wine-bottom" d="M134.72,45.63"/>
	<path class="wine-base" d="M130.37,51.91c-0.01,0-0.02,0-0.03,0c-0.27-0.01-0.48-0.25-0.46-0.52c0.24-4.26,3.25-5.87,3.38-5.93
		c0.24-0.12,0.54-0.03,0.66,0.21c0.12,0.24,0.03,0.54-0.21,0.66c-0.11,0.06-2.65,1.43-2.85,5.11
		C130.84,51.71,130.63,51.91,130.37,51.91z"/>
</g>
<g class="letter1">
	<path class="letter" d="M34,74.25l-5.34-14.21l-5.65,14.21h-0.24L13.04,48c-0.71-1.88-1.18-2.59-2.71-2.94v-0.2
		c0.82,0.04,2.43,0.08,3.77,0.08c1.45,0,2.63-0.04,3.49-0.08v0.2c-1.3,0.16-1.73,0.63-1.73,1.49c0,0.51,0.2,1.14,0.47,1.92
		l7.42,19.98l4.2-10.32L24.15,48c-0.86-2.24-1.61-2.59-3.14-2.94v-0.2c0.82,0.04,2.71,0.08,4.04,0.08c1.45,0,2.39-0.04,3.26-0.08
		v0.2c-1.18,0.16-1.57,0.63-1.57,1.33c0,0.55,0.24,1.26,0.55,2.08l2.24,5.77l0.75-1.84c0.98-2.39,1.61-4.12,1.61-5.34
		c0-1.14-0.59-1.81-1.96-2v-0.2c0.86,0.04,3.1,0.08,4.55,0.08c1.33,0,1.77-0.04,2.59-0.08v0.2c-1.96,0.39-2.86,1.02-5.57,7.85
		l-1.26,3.18l4.75,12.36l6.08-16.05c0.94-2.47,1.45-4.12,1.45-5.26c0-1.26-0.67-1.88-2.16-2.16v-0.12c0.86,0.04,3.45,0.08,4.91,0.08
		c1.33,0,1.77-0.04,2.59-0.08v0.12c-1.96,0.55-2.83,0.67-5.57,7.93l-8.05,21.35H34V74.25z"/>
	<path class="letter" d="M55.78,73.47c-0.82-0.04-2.08-0.08-3.41-0.08c-1.45,0-2.55,0.04-3.41,0.08v-0.2c1.45-0.24,1.96-0.43,1.96-3.57
		V48.63c0-3.14-0.51-3.34-1.96-3.57v-0.2c0.86,0.04,1.96,0.08,3.41,0.08c1.33,0,2.59-0.04,3.41-0.08v0.2
		c-1.45,0.24-1.96,0.43-1.96,3.57V69.7c0,3.14,0.51,3.34,1.96,3.57V73.47z"/>
	<path class="letter" d="M78.74,74.25L61.16,51.22v2.75c0,19.62-0.35,18.41,2.32,19.31v0.2c-0.86-0.04-1.88-0.08-3.34-0.08
		c-1.33,0-2.28,0.04-3.1,0.08v-0.2c2.51-0.94,2.16-0.71,2.16-20.33v-8.67h0.27l17.5,22.92v-2.71c0-19.86,0.27-18.56-2.32-19.43v-0.2
		c0.86,0.04,1.88,0.08,3.34,0.08c1.33,0,2.43-0.04,3.26-0.08v0.2c-2.63,0.86-2.32,0.55-2.32,20.17v9.03L78.74,74.25L78.74,74.25z"/>
	<path class="letter" d="M101.11,68.33c-0.04,3.3-0.24,3.45-0.24,5.18c-3.65-0.12-6.4-0.12-10.05-0.12c-2.98,0-7.06,0.04-7.89,0.08
		v-0.2c1.88-0.31,2.24-0.9,2.24-3.57V48.63c0-3.14-0.63-3.3-2.35-3.57v-0.2c0.78,0.04,2.2,0.08,5.02,0.08c6,0,11.11,0,12.87-0.08
		c0,0.27,0.04,1.02,0.04,1.65c0,0.86-0.04,2.39-0.24,3.22h-0.2c0-3.49-3.18-3.61-8.95-3.61c-2.2,0-2.71,0.08-3.3,0.24v11.69
		c7.22,0,9.58-0.08,10.16-3.02h0.2c-0.04,1.22-0.08,2.04-0.08,3.65c0,2.08,0.04,2.67,0.08,4h-0.2c-0.59-3.38-2.94-3.45-10.16-3.45
		v12.75c0.43,0.16,1.49,0.24,3.34,0.24c6.12,0,8.91,0,9.5-3.89H101.11z"/>
</g>
<g class="letter2">
	<path class="letter" d="M168.58,74.5l-9.61-26.25c-0.94-2.51-1.69-2.67-3.22-2.94v-0.2c0.82,0.04,2.94,0.08,4.28,0.08
		c1.45,0,2.98-0.04,3.85-0.08v0.2c-1.53,0.16-2.08,0.63-2.08,1.49c0,0.51,0.2,1.14,0.47,1.92l7.3,20.13l5.61-16.21
		c0.9-2.67,1.49-4.4,1.49-5.46c0-1.14-0.63-1.65-2.08-1.88v-0.2c0.86,0.04,2.83,0.08,4.28,0.08c1.33,0,1.77-0.04,2.59-0.08v0.2
		c-2,0.59-2.9,1.81-5.06,7.85l-7.57,21.35H168.58z"/>
	<path class="letter" d="M189.58,73.71c-0.82-0.04-2.08-0.08-3.41-0.08c-1.45,0-2.55,0.04-3.41,0.08v-0.2
		c1.45-0.24,1.96-0.43,1.96-3.57V48.87c0-3.14-0.51-3.34-1.96-3.57v-0.2c0.86,0.04,1.96,0.08,3.41,0.08c1.33,0,2.59-0.04,3.41-0.08
		v0.2c-1.45,0.24-1.96,0.43-1.96,3.57v21.07c0,3.14,0.51,3.34,1.96,3.57V73.71z"/>
	<path class="letter" d="M208.85,68.57c-0.04,3.3-0.24,3.45-0.24,5.18c-3.65-0.12-6.4-0.12-10.05-0.12c-2.98,0-7.06,0.04-7.89,0.08
		v-0.2c1.88-0.31,2.24-0.9,2.24-3.57V48.87c0-3.14-0.51-3.34-1.96-3.57v-0.2c0.86,0.04,1.96,0.08,3.41,0.08
		c1.33,0,2.59-0.04,3.41-0.08v0.2c-1.45,0.24-1.96,0.43-1.96,3.57v22.96c0.43,0.16,1.49,0.24,3.34,0.24c6.12,0,8.91,0.39,9.5-3.49
		h0.2V68.57z"/>
	<path class="letter" d="M227.69,68.57c-0.04,3.3-0.24,3.45-0.24,5.18c-3.65-0.12-6.4-0.12-10.05-0.12c-2.98,0-7.06,0.04-7.89,0.08
		v-0.2c1.88-0.31,2.24-0.9,2.24-3.57V48.87c0-3.14-0.51-3.34-1.96-3.57v-0.2c0.86,0.04,1.96,0.08,3.41,0.08
		c1.33,0,2.59-0.04,3.41-0.08v0.2c-1.45,0.24-1.96,0.43-1.96,3.57v22.96c0.43,0.16,1.49,0.24,3.34,0.24c6.12,0,8.91,0.39,9.5-3.49
		h0.2V68.57z"/>
	<path class="letter" d="M252.61,73.71c-0.82-0.04-2.08-0.08-3.41-0.08c-1.45,0-2.63,0.04-3.49,0.08v-0.2c1.3-0.08,1.73-0.63,1.73-1.37
		c0-0.55-0.24-1.26-0.47-2.04l-2.32-7.38h-4.51c-1.41,0-2.79,0-4.16,0.04l-2.35,6.36c-0.35,0.98-0.67,1.92-0.67,2.67
		c0,0.9,0.47,1.57,1.81,1.73v0.2c-0.86-0.04-2.2-0.08-3.65-0.08c-1.33,0-1.84,0.04-2.67,0.08v-0.2c2-0.47,2.63-0.94,4.32-5.42
		l8.87-23.59h0.39l8.24,26.06c0.78,2.47,0.86,2.75,2.35,2.94L252.61,73.71L252.61,73.71z M240.68,49.97l-4.28,11.58
		c1.26,0.04,2.47,0.04,3.73,0.04h4.16L240.68,49.97z"/>
	<path class="letter" d="M269.09,63.78c0-3.3-0.78-3.34-2.24-3.57v-0.2c0.86,0.04,2.24,0.08,3.69,0.08c1.33,0,2.35-0.04,3.18-0.08v0.2
		c-1.41,0.27-1.73,0.51-1.73,3.57v7.69c-1.46,1.13-2.71,2.55-7.53,2.55c-10.05,0-13.38-7.14-13.38-14.48
		c0-7.69,3.38-14.64,12.95-14.64c3.65,0,4.43,0.82,8.08,1.92c-0.08,0.86-0.12,2.47-0.12,3.69c0,0.67,0,1.26,0.04,1.53h-0.2
		c-0.43-4.4-2.75-6.28-7.65-6.28c-5.42,0-9.65,3.69-9.65,13.62c0,8.24,3.3,13.77,10.05,13.77c2.12,0,2.9-0.63,4.51-2.24V63.78z"/>
	<path class="letter" d="M292.67,68.57c-0.04,3.3-0.24,3.45-0.24,5.18c-3.65-0.12-6.4-0.12-10.05-0.12c-2.98,0-7.06,0.04-7.89,0.08
		v-0.2c1.88-0.31,2.24-0.9,2.24-3.57V48.87c0-3.14-0.63-3.3-2.35-3.57v-0.2c0.78,0.04,2.2,0.08,5.02,0.08c6,0,11.11,0,12.87-0.08
		c0,0.27,0.04,1.02,0.04,1.65c0,0.86-0.04,2.39-0.24,3.22h-0.2c0-3.49-3.18-3.61-8.95-3.61c-2.2,0-2.71,0.08-3.3,0.24v11.69
		c7.22,0,9.58-0.08,10.16-3.02h0.2c-0.04,1.22-0.08,2.04-0.08,3.65c0,2.08,0.04,2.67,0.08,4h-0.2c-0.59-3.37-2.94-3.45-10.16-3.45
		v12.75c0.43,0.16,1.49,0.24,3.34,0.24c6.12,0,8.91,0,9.5-3.89H292.67z"/>
</g>
</svg>
